<svg width="180" height="36" viewBox="0 0 180 36" fill="none" xmlns="http://www.w3.org/2000/svg">
<path d="M22.192 3.28297C22.9859 3.67197 23.8628 4.00675 24.7141 4.33198C29.3119 5.15461 32.5673 9.28369 32.2995 13.9453C32.4207 14.8635 32.5354 15.7244 32.7236 16.5503C32.7586 16.7097 32.8001 16.8755 32.8415 17.0349C33.5844 14.5893 34.4964 12.08 33.6897 9.78429C32.7076 6.9848 29.618 5.78593 27.3797 4.24589C25.1413 2.70585 22.9285 0.234784 20.0366 0.135941H19.8804C19.0928 0.151883 18.3116 0.324054 17.5878 0.636525C18.3403 1.01277 19.08 1.46872 19.8102 1.91511C20.5882 2.39657 21.3885 2.89079 22.192 3.28297Z" fill="white"/>
<path d="M1.51782 16.4291C1.70913 15.6097 1.83029 14.7456 1.95464 13.8305C1.71231 9.16254 5.00283 5.05578 9.61019 4.27141C10.4583 3.95256 11.3383 3.62415 12.1355 3.24472C12.9326 2.86529 13.7393 2.37107 14.5205 1.90555C15.2538 1.46235 15.9967 1.01596 16.7556 0.642911C16.0222 0.314497 15.2315 0.139126 14.4312 0.119995H14.3196C11.4308 0.190142 9.20845 2.63571 6.94462 4.16299C4.6808 5.69027 1.6039 6.86046 0.59634 9.65357C-0.223101 11.9461 0.672869 14.4586 1.39984 16.9106C1.43811 16.748 1.47955 16.5853 1.51782 16.4291Z" fill="white"/>
<path d="M32.7203 18.8077C32.529 19.6271 32.4078 20.4912 32.2803 21.4063C32.5226 26.0743 29.2321 30.1842 24.6248 30.9654C23.7766 31.2842 22.8966 31.6127 22.0995 31.9953C21.3024 32.3779 20.4957 32.8689 19.7145 33.3344C18.9811 33.7776 18.2382 34.224 17.4794 34.5971C18.2127 34.9223 19.0035 35.1009 19.8038 35.12H19.9186C22.8073 35.0498 25.0297 32.6043 27.2935 31.0738C29.5574 29.5433 32.6342 28.3763 33.6386 25.5832C34.458 23.2907 33.5621 20.7782 32.8351 18.3262C32.8 18.4888 32.7586 18.6483 32.7203 18.8077Z" fill="white"/>
<path d="M24.9915 23.1472C25.3486 20.8324 24.4558 18.9767 21.2992 17.5801C24.7683 17.172 28.0301 16.0465 28.7379 12.689C29.2736 10.1733 26.5921 7.48221 22.1633 6.88596C22.7468 6.23551 23.4291 5.6839 24.188 5.25027L24.0859 5.00476C22.7627 5.2694 21.5192 5.84014 20.4606 6.67552C15.9362 6.54798 8.91513 8.05614 5.07619 12.4403C3.65094 14.0664 2.45206 16.6555 3.7689 18.6005C4.51819 19.6016 5.72663 20.1501 6.97332 20.0576C7.90436 20.0448 8.82904 19.8695 9.69949 19.5347L9.64208 19.2732H9.40295C8.3922 19.3179 7.40377 18.9608 6.65448 18.2816C6.11881 17.7236 5.85736 16.9552 5.94345 16.1868C6.08374 14.8508 6.6513 13.5945 7.56001 12.6061C10.8218 8.69066 16.6663 7.44395 19.536 7.41525C17.1574 9.65995 15.1614 12.2841 13.6341 15.176C13.1813 16.0433 11.6317 19.1393 11.3065 19.7834C10.436 21.4892 9.47629 23.1504 8.43046 24.7542C7.40058 26.1986 6.00722 27.3433 4.39066 28.0766C4.22805 27.914 4.075 27.7418 3.93152 27.5633C2.71033 25.6885 2.01842 23.5139 1.93552 21.2788C1.81436 20.3605 1.69957 19.4996 1.51145 18.6738C1.47319 18.5144 1.43493 18.3517 1.39348 18.1891C0.650559 20.6347 -0.261339 23.1441 0.545348 25.4398C1.09377 26.8044 2.06306 27.9587 3.31295 28.7398C3.64455 28.7016 3.98891 28.6506 4.33327 28.59C4.51182 28.5581 4.67443 28.5262 4.84342 28.4943C7.45479 28.0989 9.85573 26.8299 11.654 24.8945C12.9677 23.4948 14.0358 21.8782 14.8042 20.1182C15.6396 18.339 17.1191 15.0517 17.9864 13.314C18.9716 11.2733 20.1737 9.3411 21.5702 7.55555C24.239 7.96049 26.4805 9.32196 25.8332 12.4084C24.8894 15.1154 22.3641 16.9552 19.4945 17.019C19.316 17.0285 18.1394 17.0477 17.6994 17.0477L17.4284 17.6312C17.9035 17.6184 18.3785 17.6407 18.8536 17.6949C21.7201 17.9946 22.9795 19.879 21.9305 22.7296C20.7922 25.8256 17.1574 28.0958 11.9442 26.1125L11.4978 26.5494C13.3503 27.4262 15.3782 27.8694 17.4284 27.8439C21.0377 27.812 24.5036 26.3836 24.9915 23.1472Z" fill="white"/>
<path d="M12.043 31.9506C11.2491 31.5616 10.3691 31.2268 9.52091 30.9016C9.04264 30.7231 8.56436 30.535 8.09565 30.3405C6.97968 29.8845 5.79356 29.623 4.58832 29.5752C5.3695 30.0503 6.15386 30.4999 6.85533 30.9845C9.10958 32.5341 11.3065 34.9956 14.2016 35.0945H14.3578C15.1454 35.0785 15.9234 34.9064 16.6472 34.5907C15.8947 34.2144 15.155 33.7617 14.428 33.3121C13.65 32.8402 12.8497 32.3428 12.043 31.9506Z" fill="white"/>
<path d="M74.1489 17.3474C77.7583 16.901 81.1541 15.6702 81.8906 12.0003C82.4454 9.24863 79.6586 6.30566 75.0513 5.65521C75.7304 4.89635 76.4351 4.27459 77.1557 3.86965L77.0505 3.60182C75.7623 3.78994 74.3817 4.57111 73.2753 5.42882C68.5691 5.29171 61.2643 6.94017 57.2659 11.7293C55.7833 13.5053 54.5334 16.3366 55.9044 18.4665C56.574 19.506 57.7314 20.0576 59.2492 20.0576C60.1483 20.0576 61.1304 19.8599 62.0837 19.4868L62.0231 19.1999C61.9402 19.2031 61.8573 19.2063 61.7744 19.2063C60.6011 19.2063 59.5616 18.8109 58.9144 18.1222C58.366 17.5355 58.1172 16.7639 58.1715 15.8329C58.2512 14.5288 58.8251 13.2183 59.855 11.9174C63.2475 7.64163 69.3311 6.26739 72.3156 6.24826C69.4332 8.92659 67.0801 12.8867 66.1713 14.7296C65.7026 15.6798 64.0925 19.0628 63.7513 19.7642C62.8553 21.6104 61.6246 23.8455 60.7573 25.1974C60.008 26.3676 58.028 28.539 55.372 29.2627L55.4293 29.5529C55.7769 29.5114 56.134 29.454 56.4943 29.3871C59.9251 28.7462 62.1347 27.5728 64.1116 25.3473C65.5528 23.7275 66.4264 22.28 67.3894 20.1245C68.2598 18.1732 69.7903 14.5862 70.7022 12.6858C71.7448 10.5113 73.0202 8.18367 74.4295 6.39493C77.2035 6.83494 79.5407 8.32715 78.8647 11.7006C78.3482 14.2737 75.4722 16.5024 72.2677 16.7384C72.0892 16.7511 70.8584 16.7703 70.3993 16.7703L70.1155 17.4048C70.8233 17.3952 71.2506 17.4335 71.5918 17.4717C74.5794 17.8001 75.8867 19.8599 74.7962 22.975C73.6101 26.3612 69.8254 28.845 64.4017 26.6801L63.9394 27.1583C65.4603 28.0128 67.9601 28.5995 70.1123 28.574C73.8811 28.5294 77.4809 26.967 77.9911 23.431C78.3577 20.9089 77.4395 18.8747 74.1489 17.3474ZM140.02 11.6145L137.039 13.18L137.169 13.451C137.456 13.365 137.836 13.4574 138.017 13.6679C138.218 13.9006 138.41 14.2896 138.285 15.1665C138.065 16.6969 136.021 20.099 132.192 23.9986L132.696 12.6922L129.654 13.0812H125.965L127.438 8.57586L127.212 8.57904C126.427 9.21674 124.865 10.0426 123.746 10.2817L122.805 13.0812H121.205L120.774 14.414H122.378L119.91 22.0185C119.665 22.7742 119.518 23.4342 119.467 23.973C118.753 24.3588 117.382 25.0954 116.868 25.0954C116.556 25.0954 116.323 24.9902 116.18 24.7861C115.842 24.3015 116.1 23.4183 116.227 23.0611L119.798 12.6731L114.974 13.5212L114.926 13.8592C115.389 13.7827 115.704 13.8592 115.867 14.0856C116.036 14.3215 116.03 14.7105 115.845 15.243L114.235 19.828C112.761 24.0432 110.051 24.9902 109.219 24.9902C108.811 24.9902 108.514 24.8626 108.339 24.6107C108.106 24.2791 108.109 23.7371 108.345 23.0867L112.114 12.5933L107.214 13.4893L107.169 13.8305C107.268 13.8209 107.354 13.8145 107.434 13.8145C107.736 13.8145 107.937 13.8943 108.055 14.0569C108.243 14.3215 108.208 14.7966 107.947 15.5523L105.291 23.042C105.17 23.3896 105.103 23.7754 105.093 24.1133C104.526 24.4354 103.273 25.1432 102.734 25.1432C102.444 25.1432 102.227 25.0444 102.093 24.8467C101.78 24.3939 101.988 23.5553 102.096 23.2684L105.393 13.3681C104.64 13.0652 102.829 12.7081 101.704 12.7081C94.3894 12.7081 91.1563 19.4263 90.8056 21.8718C90.7482 22.28 90.7291 22.7232 90.7482 23.1153C88.2548 24.7542 85.5573 25.3537 84.0332 25.3537C83.3987 25.3537 82.9205 25.1719 82.6144 24.818C82.2413 24.3844 82.1233 23.7148 82.2573 22.7774C82.3529 22.0982 82.6431 21.2501 82.6431 21.2501C90.9044 20.6698 91.963 16.4355 92.0842 15.5937C92.2021 14.7647 92.0108 14.009 91.5453 13.4702C91.0256 12.8676 90.1934 12.5455 89.1444 12.5455C82.6877 12.5455 79.5981 19.4199 79.2601 21.7889C79.0497 23.262 79.3111 24.4354 80.0349 25.2771C81.0711 26.4792 82.6877 26.6067 83.3382 26.6067C85.4139 26.6067 87.9806 25.6311 90.8311 23.7977C91.185 25.5131 92.3839 26.578 94.0834 26.578C96.6979 26.578 98.2794 24.6426 98.8852 23.8997C98.78 24.2823 98.7098 24.582 98.6684 24.9296C98.5982 25.4812 98.678 25.9021 98.9235 26.1922C99.1754 26.4824 99.5835 26.6322 100.141 26.6322C101.248 26.6322 103.473 25.9212 105.176 24.8052C105.482 25.867 106.455 26.578 107.74 26.578C110.259 26.578 112.162 24.7829 113.316 23.2748L113.575 22.9368L113.418 23.3322C112.943 24.5278 112.892 25.4525 113.265 26.0073C113.514 26.3772 113.957 26.578 114.515 26.578C115.74 26.578 118.211 25.4493 119.467 24.6681C119.62 25.8925 120.49 26.578 122.11 26.578C123.28 26.578 125.251 25.5322 126.08 24.7542L126.22 24.0655C125.672 24.4704 124.473 25.0858 123.468 25.0858C123.086 25.0858 122.802 24.9647 122.633 24.7255C122.378 24.3716 122.429 23.82 122.563 23.4214L125.541 14.4012H128.71C129.122 14.6403 129.316 15.3323 129.31 16.6268L129.217 26.9638C127.432 28.7175 126.115 29.6868 124.38 29.6868C123.918 29.6868 123.44 29.6167 122.923 29.4764C121.785 29.1607 121.071 28.3827 120.924 27.93C120.892 27.7897 120.812 27.7705 120.781 27.7705C120.682 27.7705 120.586 27.8821 120.548 28.0447C120.296 28.9598 120.178 30.6051 122.196 31.3767C122.745 31.5872 123.335 31.6637 123.956 31.6095C124.607 31.5521 125.35 31.3193 126.36 30.8538C128.315 29.9387 132.725 25.2484 132.725 25.2484C137.574 20.3669 140.323 16.4801 140.677 14.0058C140.887 12.453 140.17 11.7452 140.02 11.6145ZM88.1591 13.5435C88.4812 13.5435 88.7299 13.6455 88.9053 13.8464C89.1827 14.1685 89.2655 14.7456 89.1476 15.565C89.0264 16.4195 87.4864 19.9269 83.0576 20.1373C83.504 18.6993 85.8411 13.5435 88.1591 13.5435ZM99.8354 20.3541C99.0319 22.6881 97.224 25.2006 95.1515 25.2006C95.0016 25.2006 94.6158 25.1624 94.3034 24.7989C93.9271 24.362 93.8091 23.6478 93.9463 22.6753C94.195 20.9344 96.2165 13.9102 100.923 13.9102C101.289 13.9102 101.815 14.0919 101.93 14.1876L99.8354 20.3541Z" fill="white"/>
<path d="M174.742 14.5638C178.54 14.6818 179.662 13.687 179.662 13.687L179.921 12.9122C179.318 13.027 178.597 13.1035 177.95 13.1035C177.159 13.1035 176.416 13.0206 175.699 12.9409C175.559 12.925 175.422 12.9122 175.284 12.8963C176.066 10.5431 176.579 8.94253 176.697 8.57904L176.471 8.58223C175.686 9.21993 174.124 10.0457 173.008 10.2849L172.115 12.9441C170.945 13.1705 170.601 13.3777 169.756 13.9963L169.399 14.9879C170.483 14.4777 170.999 14.3119 171.643 14.4012L169.172 22.0185C168.805 23.1536 168.394 24.7702 169.089 25.7331C169.497 26.3006 170.266 26.5876 171.369 26.5876C172.737 26.5876 174.781 25.3058 175.339 24.7638L175.482 24.0751C174.934 24.48 173.732 25.0954 172.727 25.0954C172.342 25.0954 172.061 24.9742 171.892 24.7351C171.637 24.3812 171.688 23.8296 171.822 23.431C171.831 23.3864 173.311 18.8141 174.742 14.5638ZM149.416 15.6192L150.972 13.2342C150.583 12.9377 149.4 12.6667 148.715 12.6667C146.987 12.6667 145.852 14.1398 145.172 15.0198L144.86 15.4247L145.817 12.5232L141.311 13.3522L141.267 13.6966C141.343 13.687 141.416 13.6838 141.483 13.6838C141.783 13.6838 141.997 13.7699 142.121 13.9421C142.398 14.3311 142.178 15.1059 141.927 15.8647L138.33 26.6291L141.627 26.2943C142.669 23.1536 144.171 18.4251 144.184 18.3773C144.232 18.2274 145.408 14.7073 147.768 14.7073C148.823 14.7105 149.279 15.3673 149.416 15.6192ZM166.022 12.3446C163.79 12.3446 161.211 13.8241 160.834 16.563C160.617 18.1317 161.188 18.8332 162.228 20.1086C162.228 20.1086 162.821 20.8388 162.98 21.0364C164.01 22.2959 164.393 22.7678 164.284 23.5585C164.153 24.5023 163.191 25.5035 161.66 25.5035C160.723 25.5035 159.951 25.1528 159.428 24.4896C158.877 23.7913 158.695 22.8635 158.794 22.3023H158.456L157.652 25.6406C158.456 26.1954 160.209 26.6131 161.759 26.6131C164.995 26.6131 166.972 24.5438 167.256 22.5C167.441 21.1672 166.707 20.0066 165.464 18.5718L165.356 18.4474C164.032 16.9169 163.484 16.2856 163.621 15.294C163.72 14.5638 164.434 13.4797 165.984 13.4797C166.695 13.4797 167.25 13.6998 167.626 14.1366C168.244 14.8508 168.193 15.8966 168.168 16.174H168.487L169.427 13.3713C168.55 12.7018 167.374 12.3446 166.022 12.3446ZM151.945 25.36C151.31 25.36 150.835 25.1783 150.526 24.8244C150.15 24.3907 150.035 23.7212 150.169 22.7837C150.252 22.213 150.481 21.4637 150.551 21.2564C158.813 20.6761 159.871 16.4418 159.993 15.6001C160.111 14.7711 159.919 14.0154 159.454 13.4766C158.934 12.8739 158.102 12.5519 157.053 12.5519C150.596 12.5519 147.506 19.4263 147.168 21.7953C146.958 23.2684 147.219 24.4417 147.943 25.2835C148.98 26.4856 150.596 26.6131 151.243 26.6131C153.794 26.6131 155.806 25.4302 157.563 22.889L157.27 22.6307C155.65 24.4417 153.858 25.36 151.945 25.36ZM156.083 13.5435C156.405 13.5435 156.654 13.6455 156.83 13.8464C157.107 14.1685 157.19 14.7456 157.072 15.565C156.951 16.4195 155.411 19.9269 150.979 20.1373C151.428 18.6993 153.765 13.5435 156.083 13.5435Z" fill="white"/>
<path d="M179.921 25.478C179.921 26.1253 179.414 26.6322 178.754 26.6322C178.1 26.6322 177.58 26.1253 177.58 25.478C177.58 24.8467 178.103 24.3397 178.754 24.3397C179.414 24.3397 179.921 24.8467 179.921 25.478ZM177.87 25.478C177.87 25.985 178.247 26.3899 178.76 26.3899C179.261 26.3899 179.627 25.9882 179.627 25.4876C179.627 24.9806 179.257 24.5693 178.75 24.5693C178.247 24.5693 177.87 24.9806 177.87 25.478ZM178.575 26.0774H178.31V24.9392C178.416 24.9168 178.559 24.9041 178.747 24.9041C178.964 24.9041 179.06 24.9391 179.143 24.987C179.206 25.0348 179.254 25.1273 179.254 25.2357C179.254 25.36 179.155 25.4589 179.018 25.5003V25.5131C179.13 25.5545 179.19 25.6374 179.225 25.7905C179.261 25.9627 179.28 26.0328 179.308 26.0743H179.025C178.99 26.0328 178.97 25.9276 178.935 25.7969C178.913 25.6725 178.846 25.6151 178.699 25.6151H178.575V26.0774V26.0774ZM178.581 25.4302H178.706C178.852 25.4302 178.97 25.3823 178.97 25.2644C178.97 25.1592 178.894 25.0922 178.728 25.0922C178.658 25.0922 178.61 25.0986 178.581 25.1049V25.4302Z" fill="white"/>
</svg>
